# Alias OBJ Model File
# Exported from SketchUp, (c) 2000-2012 Trimble Navigation Limited
# File units = millimeters

mtllib Untitled.mtl

g Mesh1 _13_______ Model

usemtl FrontColor
v 0 800 -0
vt 0 0
vn 0 1 -0
v 700 800 -0
vt 27.5591 0
v 700 800 -477
vt 27.5591 18.7795
v 0 800 -477
vt 0 18.7795
f 1/1/1 2/2/1 3/3/1 4/4/1 

vt 27.5591 31.4961
vn 0 0 1
vt 0 31.4961
v 0 783 -0
vt 0 30.8268
v 700 783 -0
vt 27.5591 30.8268
f 2/5/2 1/6/2 5/7/2 6/8/2 

vn -1 0 -0
vt -18.7795 31.4961
v 0 783 -477
vt -18.7795 30.8268
f 1/6/3 4/9/3 7/10/3 5/7/3 

vn 0 0 -1
vt -27.5591 31.4961
v 700 783 -477
vt -27.5591 30.8268
f 4/6/4 3/11/4 8/12/4 7/7/4 

vt 18.7795 31.4961
vn 1 0 -0
vt 18.7795 30.8268
f 3/13/5 2/6/5 6/7/5 8/14/5 

vt -27.5591 0
vn 0 -1 -0
vt -27.5591 18.7795
f 6/15/6 5/1/6 7/4/6 8/16/6 

g Mesh2 _14_________ Model

v 0 117 -500
vt -19.685 4.6063
v 0 117 -0
vt 0 4.6063
v 0 783 -500
vt -19.685 30.8268
f 9/17/3 10/18/3 5/7/3 11/19/3 

vt 0 19.685
v 17 117 -500
vt -0.669291 19.685
v 17 117 -0
vt -0.669291 0
f 10/1/6 9/20/6 12/21/6 13/22/6 

v 17 783 -500
vt -0.669291 30.8268
vt -0.669291 4.6063
f 9/18/4 11/7/4 14/23/4 12/24/4 

v 17 783 -0
vt 0.669291 0
vt 0.669291 19.685
f 11/20/1 5/1/1 15/25/1 14/26/1 

vt 0.669291 4.6063
vt 0.669291 30.8268
f 5/7/2 10/18/2 13/27/2 15/28/2 

vt 19.685 4.6063
vt 19.685 30.8268
f 13/18/5 12/29/5 14/30/5 15/7/5 

g Mesh3 _15________ Model

v 683 117 -500
v 683 117 -0
v 683 783 -0
v 683 783 -500
f 16/17/3 17/18/3 18/7/3 19/19/3 

vt -26.8898 0
vt -26.8898 19.685
v 700 117 -500
vt -27.5591 19.685
v 700 117 -0
f 17/31/6 16/32/6 20/33/6 21/15/6 

vt -26.8898 4.6063
vt -26.8898 30.8268
v 700 783 -500
vt -27.5591 4.6063
f 16/34/4 19/35/4 22/12/4 20/36/4 

vt 26.8898 19.685
vt 26.8898 0
vt 27.5591 19.685
f 19/37/1 18/38/1 6/2/1 22/39/1 

vt 26.8898 30.8268
vt 26.8898 4.6063
vt 27.5591 4.6063
f 18/40/2 17/41/2 21/42/2 6/8/2 

f 21/18/5 20/29/5 22/30/5 6/7/5 

g Mesh4 _16_________ Model

f 10/1/1 21/2/1 20/39/1 9/20/1 

v 0 100 -0
vt 0 3.93701
v 700 100 -0
vt 27.5591 3.93701
f 21/42/2 10/18/2 23/43/2 24/44/2 

v 0 100 -500
vt -19.685 3.93701
f 10/18/3 9/17/3 25/45/3 23/43/3 

v 700 100 -500
vt -27.5591 3.93701
f 9/18/4 20/36/4 26/46/4 25/43/4 

vt 19.685 3.93701
f 20/29/5 21/18/5 24/43/5 26/47/5 

f 24/15/6 23/1/6 25/20/6 26/33/6 

g Mesh5 _17__________ Model

v 0 0 -17
v 700 0 -17
v 700 100 -17
v 0 100 -17
f 27/1/2 28/2/2 29/44/2 30/43/2 

vt -27.5591 0.669291
vt 0 0.669291
v 0 0 -34
vt 0 1.33858
v 700 0 -34
vt -27.5591 1.33858
f 28/48/6 27/49/6 31/50/6 32/51/6 

vt -0.669291 3.93701
v 0 100 -34
vt -1.33858 3.93701
vt -1.33858 0
f 27/22/3 30/52/3 33/53/3 31/54/3 

vt 27.5591 0.669291
v 700 100 -34
vt 27.5591 1.33858
f 30/49/1 29/55/1 34/56/1 33/50/1 

vt 0.669291 3.93701
vt 1.33858 0
vt 1.33858 3.93701
f 29/57/5 28/25/5 32/58/5 34/59/5 

f 32/15/4 31/1/4 33/43/4 34/46/4 

g Mesh6 _18_________ Model

v 8 108 -477
vt 0.314961 4.25197
v 692 108 -477
vt 27.2441 4.25197
v 692 800 -477
vt 27.2441 31.4961
v 8 800 -477
vt 0.314961 31.4961
f 35/60/2 36/61/2 37/62/2 38/63/2 

vt -27.2441 18.7795
vt -0.314961 18.7795
v 8 108 -483
vt -0.314961 19.0157
v 692 108 -483
vt -27.2441 19.0157
f 36/64/6 35/65/6 39/66/6 40/67/6 

vt -18.7795 4.25197
v 8 800 -483
vt -19.0157 31.4961
vt -19.0157 4.25197
f 35/68/3 38/9/3 41/69/3 39/70/3 

vt 0.314961 18.7795
vt 27.2441 18.7795
v 692 800 -483
vt 27.2441 19.0157
vt 0.314961 19.0157
f 38/71/1 37/72/1 42/73/1 41/74/1 

vt 18.7795 4.25197
vt 19.0157 4.25197
vt 19.0157 31.4961
f 37/13/5 36/75/5 40/76/5 42/77/5 

vt -27.2441 4.25197
vt -0.314961 4.25197
vt -0.314961 31.4961
vt -27.2441 31.4961
f 40/78/4 39/79/4 41/80/4 42/81/4 

